# xmcd
#
# Track frame offsets:
#	150
#	27343
#	47820
#	72060
#	105761
#	130635
#	161632
#	188602
#	212762
#	238450
#
# Disc length: 3513 seconds
#
# Revision: 4056173128
# Processed by: cddbd v1.5.2PL0 Copyright (c) Steve Scherf et al.
# Submitted via: EZCDAudioConverter 8.0.2.1
#
DISCID=810db70a
DTITLE=Various Artist - Những Tình Khúc Vượt Thời Gian. Đời Đá Vàng
DYEAR=2010
DGENRE=Contemporary Pop
TTITLE0=Khánh Hà, Trần Thái Hòa - Đời Đá Vàng, Tưởng Niệm
TTITLE1=Ngọc Hạ, Trần Thái Hòa - Còn gì nữa đâu, Kiếp nào có yêu nhau
TTITLE2=Khánh Hà, Bằng Kiều - Biển cạn
TTITLE3=Ngọc Anh, Hồ Lệ Thu - Bài không tên số 4, Thu đến bao giờ
TTITLE4=Khánh Ly, Thế Sơn - Chiều một mình qua phố, Gọi tên bốn mùa
TTITLE5=Ý Lan, Quang Dũng - LK Đức Huy
TTITLE6=Trần Thu Hà, Bằng Kiều - Mùa thu cho em, Mộng dưới hoa
TTITLE7=Chế Linh, Khánh Ly - LK Một cõi đi về, Thành phố buồn, Như cánh vạc ba
TTITLE7=y
TTITLE8=Ý Lan, Quang Tuấn - Ngậm ngùi, Mộ Khúc
TTITLE9=Ngọc Hạ, Trần Thái Hòa - LK Qua cầu gió bay, Buôn bấc buôn dầu
EXTD=
EXTT0=
EXTT1=
EXTT2=
EXTT3=
EXTT4=
EXTT5=
EXTT6=
EXTT7=
EXTT8=
EXTT9=
PLAYORDER=
